<svg width="876" height="877" viewBox="0 0 876 877" fill="none" xmlns="http://www.w3.org/2000/svg">
<path d="M461.562 71.0702C452.475 46.75 442.712 23.1232 432.317 0.349029C364.415 28.211 292.76 42.5036 218.936 42.5036C144.619 42.5036 72.6157 28.128 4.48437 0C1.53852 19.7201 0 39.5934 0 59.358C0 173.836 48.2581 281.077 133.182 357.187C200.031 221.288 317.877 118.597 461.562 71.0702Z" transform="translate(37.479 378.66)" fill="#333333"/>
<path d="M285.264 23.7528C193.004 -4.95991 93.8888 -7.724 0 15.9103C34.9249 120.552 54.1221 229.219 57.1687 339.726C179.873 281.759 268.547 163.969 285.264 23.7528Z" transform="translate(547.711 458.882)" fill="#333333"/>
<path d="M186.646 292.129C274.669 248.975 347.989 183.066 400.31 99.9829C327.063 35.622 234.235 0 136.804 0C89.8828 0 44.0023 8.25289 0 24.367C75.2317 104.449 137.884 194.321 186.646 292.129Z" transform="translate(301.187 37.4791)" fill="#333333"/>
<path d="M225.039 0C169.259 86.0857 92.1142 154.573 0.0187292 199.711L0.156017 200.005L0 200.078C10.9626 224.17 21.3012 249.241 30.8453 274.963C76.9539 263.049 124.314 257.018 171.877 257.018C226.943 257.018 281.331 265.007 333.926 280.801C333.991 278.586 334.027 276.363 334.027 274.129C334.027 171.108 295.496 74.6283 225.039 0Z" transform="translate(504.494 163.889)" fill="#333333"/>
<path d="M311.399 0C174.055 45.121 61.8559 144.281 0 275.357C69.3213 326.697 151.151 353.755 237.584 353.755C281.522 353.755 325.196 346.335 367.589 331.693C366.199 218.434 347.322 107.003 311.399 0Z" transform="translate(200.399 484.775)" fill="#333333"/>
<path d="M207.094 306.438C275.4 306.438 341.768 293.491 404.656 267.934C355.538 169.662 291.872 79.6688 215.12 0C107.734 51.753 28.5932 148.917 0 263.991C65.6146 292.164 135.211 306.438 207.094 306.438Z" transform="translate(49.3206 77.2462)" fill="#333333"/>
</svg>
