<svg width="892" height="630" viewBox="0 0 892 630" fill="none" xmlns="http://www.w3.org/2000/svg">
<path d="M410.772 367.072C430.079 367.072 447.559 359.247 460.212 346.594L802.698 4.10782C800.946 3.19042 799.093 2.45323 797.196 1.8174C796.359 1.54914 795.54 1.24094 794.676 1.03514C793.937 0.848794 793.175 0.725933 792.418 0.587708C790.511 0.266208 788.583 0 786.585 0H34.9585C32.9609 0 31.0319 0.266208 29.1255 0.587708C28.3678 0.724909 27.605 0.84777 26.8668 1.03514C26.0026 1.24094 25.1845 1.54812 24.348 1.8174C22.4507 2.45323 20.5975 3.19042 18.8456 4.10782L361.332 346.594C373.984 359.247 391.464 367.072 410.772 367.072ZM0.0235519 34.7261C0.0225279 34.806 1e-06 34.8797 0 34.9595V524.389C0 524.856 0.118769 525.29 0.137199 525.752L245.593 280.296L0.0235519 34.7261V34.7261ZM484.932 371.314C465.953 390.294 439.733 402.032 410.772 402.032C381.81 402.032 355.591 390.293 336.612 371.314L270.313 305.015L19.6504 555.679C21.8827 556.765 24.2192 557.623 26.6241 558.239C26.7807 558.278 26.9251 558.344 27.0828 558.381C29.6087 558.998 32.237 559.35 34.9595 559.35H786.584C789.306 559.35 791.934 558.998 794.46 558.381C794.618 558.344 794.762 558.278 794.919 558.239C797.324 557.623 799.66 556.765 801.892 555.679L551.229 305.015L484.932 371.314V371.314ZM821.52 34.7261L575.95 280.296L821.406 525.752C821.424 525.29 821.543 524.856 821.543 524.389V34.9595C821.543 34.8797 821.521 34.806 821.52 34.7261V34.7261Z" transform="translate(34.9595 34.9595)" fill="#333333"/>
</svg>
